<svg xmlns="http://www.w3.org/2000/svg" version="1.1" xmlns:xlink="http://www.w3.org/1999/xlink" xmlns:svgjs="http://svgjs.dev/svgjs" width="100%" height="100%" viewBox="0 0 1000 600"><rect width="1000" height="600" x="0" y="0" fill="#ec4d37"/><g><circle r="166.66666666666666" cx="382.64599100748694" cy="404.8683001814155" fill="#1d1b1b" transform="matrix(0.5787588328063612,0,0,0.5787588328063611,0,65.67888436419068)"/><path d="M283.3181281870428 371.2416245235186L283.3181281870428 371.2416245235186Q283.3181281870428 379.59752381993945 289.8751880515953 385.0230556547682Q296.46126145537136 390.448587489597 306.2968512522 392.65361647059694Q316.103427509805 394.85864545159683 327.70884319927825 398.0791483054257Q339.28524534952794 401.32866469847824 349.12083514635657 405.0714112583334Q358.9274114039615 408.8431713574122 365.5134848077376 417.5182195852935Q372.0995582115137 426.1932678131748 372.0995582115137 439.1333063069375L372.0995582115137 439.1333063069375Q372.0995582115137 457.0926870863975 357.3606802858826 468.49500800130505Q342.6218023602515 479.8683153769889 316.30652228437077 479.8683153769889Q289.99124220849 479.8683153769889 266.171126505846 468.5820486189761L266.171126505846 468.5820486189761L266.171126505846 449.98436997659513L267.2156139178986 449.98436997659513Q288.9467547964374 462.1120293720947 316.741725372726 462.1120293720947L316.741725372726 462.1120293720947Q353.2987847945669 462.1120293720947 353.2987847945669 437.8857241203192L353.2987847945669 437.8857241203192Q353.2987847945669 425.96115949938536 335.5424987896728 420.3325328899908L335.5424987896728 420.3325328899908Q327.7958838169493 417.837368516754 318.3954971084759 415.5162853788593Q308.99511040000255 413.2242157801884 299.50768307385806 410.0907535440306Q289.99124220849 406.95729130787277 282.1575866180955 402.69230104199136Q274.323931027701 398.3982972368862 269.4206428988985 390.7677364210575Q264.51735477009606 383.13717560522883 264.51735477009606 372.6923014847028L264.51735477009606 372.6923014847028Q264.51735477009606 354.5298259306771 278.82102960737194 342.1990717606117Q293.1247044446478 329.86831759054627 317.46706385331805 329.86831759054627Q341.80942326198834 329.86831759054627 361.4225757771983 337.4118377887039L361.4225757771983 337.4118377887039L361.4225757771983 355.1681237935981L359.9718988160141 355.1681237935981Q340.3297327615805 347.21841404630885 322.25429782522576 347.21841404630885Q304.2078764280948 347.21841404630885 293.76300230756885 353.6013926755192Q283.3181281870428 359.9553577655059 283.3181281870428 371.2416245235186ZM411.99317464407824 371.2416245235186L411.99317464407824 371.2416245235186Q411.99317464407824 379.59752381993945 418.5792480478543 385.0230556547682Q425.1363079124068 390.448587489597 434.9718977092354 392.65361647059694Q444.77847396684035 394.85864545159683 456.38388965631367 398.0791483054257Q467.9602918065633 401.32866469847824 477.79588160339193 405.0714112583334Q487.6024578609969 408.8431713574122 494.188531264773 417.5182195852935Q500.7746046685491 426.1932678131748 500.7746046685491 439.1333063069375L500.7746046685491 439.1333063069375Q500.7746046685491 457.0926870863975 486.035726742918 468.49500800130505Q471.3258623565106 479.8683153769889 444.98156874140614 479.8683153769889Q418.66628866552537 479.8683153769889 394.8461729628814 468.5820486189761L394.8461729628814 468.5820486189761L394.8461729628814 449.98436997659513L395.890660374934 449.98436997659513Q417.62180125347277 462.1120293720947 445.4167718297614 462.1120293720947L445.4167718297614 462.1120293720947Q481.9738312516023 462.1120293720947 481.9738312516023 437.8857241203192L481.9738312516023 437.8857241203192Q481.9738312516023 425.96115949938536 464.21754524670814 420.3325328899908L464.21754524670814 420.3325328899908Q456.4709302739847 417.837368516754 447.07054356551134 415.5162853788593Q437.6701568570379 413.2242157801884 428.18272953089354 410.0907535440306Q418.66628866552537 406.95729130787277 410.8326330751309 402.69230104199136Q402.99897748473643 398.3982972368862 398.0956893559339 390.7677364210575Q393.1924012271314 383.13717560522883 393.1924012271314 372.6923014847028L393.1924012271314 372.6923014847028Q393.1924012271314 354.5298259306771 407.49607606440736 342.1990717606117Q421.7997509016832 329.86831759054627 446.1421103103535 329.86831759054627Q470.48446971902376 329.86831759054627 490.12663577345734 337.4118377887039L490.12663577345734 337.4118377887039L490.12663577345734 355.1681237935981L488.64694527304954 355.1681237935981Q469.0047792186159 347.21841404630885 450.9583578214849 347.21841404630885Q432.8829228851302 347.21841404630885 422.4380487646042 353.6013926755192Q411.99317464407824 359.9553577655059 411.99317464407824 371.2416245235186Z " fill="#ec4d37" transform="matrix(0.5787588328063612,0,0,0.5787588328063611,0,65.67888436419068)"/><path d="M646.708485677578 364.2433167182758L646.708485677578 364.2433167182758Q646.708485677578 370.4933164699232 651.612999371579 374.55147603088864Q656.5392144536065 378.60963559185404 663.895984994608 380.2589410818721Q671.2310541475831 381.9082465718902 679.9116093582043 384.31710064283754Q688.5704631807992 386.7476561018115 695.9272337218006 389.5471351572369Q703.2623028747755 392.3683156006888 708.1885179568033 398.8570306206282Q713.1147330388308 405.3457456405676 713.1147330388308 415.02456470041034L713.1147330388308 415.02456470041034Q713.1147330388308 428.4577238888468 702.0904279213416 436.9863693832822Q691.0661228038527 445.49331348969105 671.382963863769 445.49331348969105Q651.6998049236852 445.49331348969105 633.882965353885 437.0514735473618L633.882965353885 437.0514735473618L633.882965353885 423.1408838223412L634.6642153228408 423.1408838223412Q650.9185549547292 432.21206401744047 671.7084846841672 432.21206401744047L671.7084846841672 432.21206401744047Q699.0522335976243 432.21206401744047 699.0522335976243 414.09140501526855L699.0522335976243 414.09140501526855Q699.0522335976243 405.17213453635514 685.7709841253736 400.9620652592038L685.7709841253736 400.9620652592038Q679.976713522284 399.09574588892025 672.9454638016807 397.35963484679604Q665.9142140810775 395.6452251926983 658.8178601963946 393.3014752858306Q651.6998049236852 390.95772537896283 645.8404301565158 387.76762133905953Q639.9810553893465 384.5558159111296 636.313520812859 378.8483508601461Q632.6459862363715 373.1408858091626 632.6459862363715 365.3283861196035L632.6459862363715 365.3283861196035Q632.6459862363715 351.74331721498123 643.3447705334622 342.5202273036961Q654.0435548305529 333.297137392411 672.2510193848311 333.297137392411Q690.4584839391092 333.297137392411 705.1286222450592 338.9394982793148L705.1286222450592 338.9394982793148L705.1286222450592 352.2207477515654L704.0435528437315 352.2207477515654Q689.3517131497549 346.27456743228976 675.8317484092123 346.27456743228976Q662.3334850566962 346.27456743228976 654.5209853671371 351.0488727981315Q646.708485677578 355.80147677594664 646.708485677578 364.2433167182758ZM825.6147285684825 362.680816780364L825.6147285684825 362.680816780364Q838.4185475041489 362.680816780364 845.0591722402743 371.75199697546327Q851.6997969763996 380.80147578253593 851.6997969763996 392.67213503306056L851.6997969763996 392.67213503306056L851.6997969763996 443.9308135517792L837.4853878190071 443.9308135517792L837.4853878190071 395.49331547651246Q837.4853878190071 385.33706588008556 833.8178532425196 380.56276051424385Q830.1286172780057 375.8101565364287 821.5348676194905 375.8101565364287L821.5348676194905 375.8101565364287Q808.1017084310541 375.8101565364287 799.0522296239814 390.805815662777L799.0522296239814 390.805815662777L799.0522296239814 443.9308135517792L784.8161190785626 443.9308135517792L784.8161190785626 395.49331547651246Q784.8161190785626 385.33706588008556 781.2353900541813 380.56276051424385Q777.6329596417735 375.8101565364287 768.8873002670724 375.8101565364287L768.8873002670724 375.8101565364287Q755.4541410786361 375.8101565364287 746.3829608835368 390.805815662777L746.3829608835368 390.805815662777L746.3829608835368 443.9308135517792L732.1685517261445 443.9308135517792L732.1685517261445 364.2433167182758L744.668551229439 364.2433167182758L746.3829608835368 374.24765659851687L746.3829608835368 376.5914065053846L746.708481703935 376.5914065053846Q756.6911201961497 362.680816780364 772.945459828038 362.680816780364L772.945459828038 362.680816780364Q781.6911192027388 362.680816780364 787.8760147903066 367.21640687791364Q794.0392089898477 371.75199697546327 796.7084797171136 378.4577258756682L796.7084797171136 378.4577258756682L797.1642088656712 378.4577258756682Q806.6911182093282 362.680816780364 825.6147285684825 362.680816780364ZM877.1772265195731 381.43081603530595L877.1772265195731 368.6269970996396Q890.7622954241953 362.680816780364 906.3004892512075 362.680816780364Q921.860384466246 362.680816780364 930.1286133043628 371.75199697546327Q938.4185435305061 380.80147578253593 938.4185435305061 393.45338500201643L938.4185435305061 393.45338500201643L938.4185435305061 443.9308135517792L925.9185440272114 443.9308135517792L924.2041343731138 433.9264736715382L923.7267038365297 433.9264736715382Q912.4853848387751 445.49331348969105 894.8204549851608 445.49331348969105L894.8204549851608 445.49331348969105Q884.2084762401763 445.49331348969105 876.786601535095 439.09140402185784Q869.3647268300139 432.68949455402463 869.3647268300139 421.5783838844294Q869.3647268300139 410.4889746028607 878.5010111891928 403.60963459844334Q887.6372955483718 396.7519959820525 905.302225401986 396.7519959820525L905.302225401986 396.7519959820525L924.2041343731138 396.7519959820525L924.2041343731138 395.49331547651246Q924.2041343731138 385.18515616389965 919.1260095749004 380.6495660663501Q914.0478847766868 376.11397596880045 901.5478852733924 376.11397596880045Q889.0478857700977 376.11397596880045 878.1103862047147 381.43081603530595L878.1103862047147 381.43081603530595L877.1772265195731 381.43081603530595ZM924.2041343731138 421.27456445205763L924.2041343731138 421.27456445205763L924.2041343731138 408.14522469599297L907.1685447722695 408.14522469599297Q883.5791359874062 408.14522469599297 883.5791359874062 420.5801200352079Q883.5791359874062 432.9933139863964 900.1372950516662 432.9933139863964L900.1372950516662 432.9933139863964Q907.0166350560836 432.9933139863964 913.4185445239169 429.62959884228064Q919.82045399175 426.2658836981649 924.2041343731138 421.27456445205763ZM1006.3872908296709 362.680816780364L1006.3872908296709 362.680816780364L1007.6459713352109 362.680816780364L1007.6459713352109 376.2658856849863L1006.3872908296709 376.2658856849863Q997.1642009183857 376.2658856849863 989.1997915126407 379.86831609739414Q981.2353821068956 383.470746509802 976.699792009346 389.8726559776352L976.699792009346 389.8726559776352L976.699792009346 443.9308135517792L962.4853828519537 443.9308135517792L962.4853828519537 364.2433167182758L974.9853823552484 364.2433167182758L976.699792009346 374.24765659851687L976.699792009346 376.5914065053846L977.0036114417177 376.5914065053846Q988.2666318274988 362.680816780364 1006.3872908296709 362.680816780364ZM1064.9810385013643 364.2433167182758L1064.9810385013643 376.43949678919876L1042.324789401643 376.43949678919876L1042.324789401643 423.6183143589254Q1042.324789401643 430.17213354294444 1045.9272198140507 431.7346334808563L1045.9272198140507 431.7346334808563Q1048.8786085856618 432.9933139863964 1053.5661083993973 432.9933139863964Q1058.2536082131328 432.9933139863964 1063.8959691000368 430.49765436334275L1063.8959691000368 430.49765436334275L1064.9810385013643 430.49765436334275L1064.9810385013643 442.0644941814956Q1058.4272193173456 445.49331348969105 1050.9185390601579 445.49331348969105L1050.9185390601579 445.49331348969105Q1028.1103802442503 445.49331348969105 1028.1103802442503 424.8769948644655L1028.1103802442503 424.8769948644655L1028.1103802442503 376.43949678919876L1013.2666308340882 376.43949678919876L1013.2666308340882 375.48463571603037L1042.324789401643 347.0558174012457L1042.324789401643 364.2433167182758L1064.9810385013643 364.2433167182758ZM1122.793536204102 393.77890582241474L1122.793536204102 406.4308150418953L1082.1685378183947 406.4308150418953L1082.1685378183947 393.77890582241474L1122.793536204102 393.77890582241474ZM1157.4723542705342 364.2433167182758L1157.4723542705342 364.2433167182758Q1157.4723542705342 370.4933164699232 1162.398569352562 374.55147603088864Q1167.3247844345892 378.60963559185404 1174.6598535875642 380.2589410818721Q1182.0166241285656 381.9082465718902 1190.6754779511607 384.31710064283754Q1199.3560331617819 386.7476561018115 1206.6911023147568 389.5471351572369Q1214.0478728557582 392.3683156006888 1218.974087937786 398.8570306206282Q1223.8786016317872 405.3457456405676 1223.8786016317872 415.02456470041034L1223.8786016317872 415.02456470041034Q1223.8786016317872 428.4577238888468 1212.8759979023248 436.9863693832822Q1201.8516927848354 445.49331348969105 1182.1685338447514 445.49331348969105Q1162.4853749046679 445.49331348969105 1144.668535334868 437.0514735473618L1144.668535334868 437.0514735473618L1144.668535334868 423.1408838223412L1145.4497853038238 423.1408838223412Q1161.7041249357121 432.21206401744047 1182.4723532771236 432.21206401744047L1182.4723532771236 432.21206401744047Q1209.8161021905803 432.21206401744047 1209.8161021905803 414.09140501526855L1209.8161021905803 414.09140501526855Q1209.8161021905803 405.17213453635514 1196.53485271833 400.9620652592038L1196.53485271833 400.9620652592038Q1190.7622835032666 399.09574588892025 1183.7310337826634 397.35963484679604Q1176.6997840620602 395.6452251926983 1169.581728789351 393.3014752858306Q1162.4853749046679 390.95772537896283 1156.6260001374985 387.76762133905953Q1150.7666253703292 384.5558159111296 1147.0990907938417 378.8483508601461Q1143.4098548293277 373.1408858091626 1143.4098548293277 365.3283861196035L1143.4098548293277 365.3283861196035Q1143.4098548293277 351.74331721498123 1154.130340514445 342.5202273036961Q1164.8291248115356 333.297137392411 1183.036589365814 333.297137392411Q1201.2223525320655 333.297137392411 1215.914192226042 338.9394982793148L1215.914192226042 338.9394982793148L1215.914192226042 352.2207477515654L1214.8291228247144 352.2207477515654Q1200.1372831307376 346.27456743228976 1186.6173183901951 346.27456743228976Q1173.0973536496526 346.27456743228976 1165.2848539600932 351.0488727981315Q1157.4723542705342 355.80147677594664 1157.4723542705342 364.2433167182758ZM1286.2266894320742 362.680816780364L1286.2266894320742 362.680816780364Q1299.2041194719532 362.680816780364 1306.691098341114 371.42647615506496Q1314.1997785983017 380.1721355297659 1314.1997785983017 393.3014752858306L1314.1997785983017 393.3014752858306L1314.1997785983017 443.9308135517792L1299.985369440909 443.9308135517792L1299.985369440909 394.8639752237424Q1299.985369440909 375.8101565364287 1282.797870123879 375.8101565364287L1282.797870123879 375.8101565364287Q1269.19109983123 375.8101565364287 1257.1685308645197 390.805815662777L1257.1685308645197 390.805815662777L1257.1685308645197 443.9308135517792L1242.9541217071273 443.9308135517792L1242.9541217071273 329.86831808421556L1257.1685308645197 329.86831808421556L1257.1685308645197 376.5914065053846L1257.6459614011037 376.5914065053846Q1270.2978706205845 362.680816780364 1286.2266894320742 362.680816780364ZM1333.253597285615 404.0870651350275Q1333.253597285615 385.4889755962714 1344.1910968509978 374.09574688233096Q1355.1285964163808 362.680816780364 1373.184151254473 362.680816780364Q1391.2397060925655 362.680816780364 1402.242309822028 374.09574688233096Q1413.2666149395168 385.4889755962714 1413.2666149395168 404.0870651350275Q1413.2666149395168 422.68515467378364 1402.242309822028 434.07838338772405Q1391.2397060925655 445.49331348969105 1373.184151254473 445.49331348969105Q1355.1285964163808 445.49331348969105 1344.1910968509978 434.07838338772405Q1333.253597285615 422.68515467378364 1333.253597285615 404.0870651350275ZM1355.2154019684867 425.4195295651293Q1362.9410961059398 432.51588344981224 1373.2709568065793 432.51588344981224Q1383.579116119192 432.51588344981224 1391.304810256645 425.4195295651293Q1399.0522057821245 418.30147429241987 1399.0522057821245 404.0002595829213Q1399.0522057821245 389.7207462614493 1391.304810256645 382.68949654084605Q1383.579116119192 375.6582468202428 1373.2709568065793 375.6582468202428Q1362.9410961059398 375.6582468202428 1355.2154019684867 382.68949654084605Q1347.4897078310341 389.7207462614493 1347.4897078310341 404.0002595829213Q1347.4897078310341 418.30147429241987 1355.2154019684867 425.4195295651293ZM1500.5278961942872 434.2519944919365Q1489.1997716444266 445.49331348969105 1474.0522028018922 445.49331348969105Q1458.8829325713318 445.49331348969105 1447.793523289763 433.9264736715382L1447.793523289763 433.9264736715382L1447.3160927531785 433.9264736715382L1447.3160927531785 479.8683121237513L1433.1016835957862 479.8683121237513L1433.1016835957862 364.2433167182758L1445.6016830990811 364.2433167182758L1447.3160927531785 374.24765659851687L1447.793523289763 374.24765659851687Q1458.8829325713318 362.680816780364 1474.0522028018922 362.680816780364Q1489.1997716444266 362.680816780364 1500.5278961942872 373.92213577811856Q1511.8560207441478 385.18515616389965 1511.8560207441478 404.0870651350275Q1511.8560207441478 422.98897410615535 1500.5278961942872 434.2519944919365ZM1472.0122723273962 375.96206625261453L1472.0122723273962 375.96206625261453Q1457.9497728861897 375.96206625261453 1447.3160927531785 387.6808157869533L1447.3160927531785 387.6808157869533L1447.3160927531785 420.49331448310176Q1457.9497728861897 432.21206401744047 1472.0122723273962 432.21206401744047L1472.0122723273962 432.21206401744047Q1483.5791121455495 432.21206401744047 1490.6103618661523 424.8769948644655Q1497.6416115867555 417.52022432346394 1497.6416115867555 404.0870651350275Q1497.6416115867555 390.65390594659107 1490.6103618661523 383.29713540558953Q1483.5791121455495 375.96206625261453 1472.0122723273962 375.96206625261453Z " fill="#1d1b1b" transform="matrix(0.5787588328063612,0,0,0.5787588328063611,0,65.67888436419068)"/></g></svg>